<svg xmlns="http://www.w3.org/2000/svg" viewBox="0 0 100 100">
  <g stroke="#00000055" stroke-width="1.2" stroke-linejoin="round">
    <polygon points="8.00,27.00 50.00,4.00 92.00,27.00 50.00,50.00" fill="#ffffff" />
    <polygon points="8.00,73.00 8.00,27.00 50.00,50.00 50.00,96.00" fill="#009e60" />
    <polygon points="50.00,50.00 92.00,27.00 92.00,73.00 50.00,96.00" fill="#c41e3a" />
  </g>
  <g stroke="#00000033" stroke-width="0.9">
    <line x1="22.00" y1="19.33" x2="64.00" y2="42.33" /><line x1="22.00" y1="34.67" x2="64.00" y2="11.67" /><line x1="36.00" y1="11.67" x2="78.00" y2="34.67" /><line x1="36.00" y1="42.33" x2="78.00" y2="19.33" />
    <line x1="8.00" y1="57.67" x2="50.00" y2="80.67" /><line x1="22.00" y1="80.67" x2="22.00" y2="34.67" /><line x1="8.00" y1="42.33" x2="50.00" y2="65.33" /><line x1="36.00" y1="88.33" x2="36.00" y2="42.33" />
    <line x1="64.00" y1="42.33" x2="64.00" y2="88.33" /><line x1="50.00" y1="65.33" x2="92.00" y2="42.33" /><line x1="78.00" y1="34.67" x2="78.00" y2="80.67" /><line x1="50.00" y1="80.67" x2="92.00" y2="57.67" />
  </g>
</svg>